<svg xmlns="http://www.w3.org/2000/svg" xmlns:xlink="http://www.w3.org/1999/xlink" version="1.1" data-diagram-type="CLASS" style="width:2145px;height:1196px;background:#FFFFFF;" width="2145px" height="1196px" viewBox="0 0 2145 1196" zoomAndPan="magnify" preserveAspectRatio="none" contentStyleType="text/css"><?plantuml 1.2026.7beta8?><defs/><g font-family="sans-serif" lengthAdjust="spacing"><!--cluster Repositories--><g class="cluster" data-qualified-name="Repositories" id="ent0001" data-source-line="1"><path d="M8.5,6 L264.166,6 A3.75,3.75 0 0 1 266.666,8.5 L273.666,28.297 L2127.5,28.297 A2.5,2.5 0 0 1 2130,30.797 L2130,1179.47 A2.5,2.5 0 0 1 2127.5,1181.97 L8.5,1181.97 A2.5,2.5 0 0 1 6,1179.47 L6,8.5 A2.5,2.5 0 0 1 8.5,6" style="stroke:#000;stroke-width:1.5;" fill="none"/><line x1="6" y1="28.297" x2="273.666" y2="28.297" style="stroke:#000;stroke-width:1.5;"/><text x="10" y="20.995" fill="#000" font-size="14" textLength="254.666" font-weight="700">SmartHome.Server.Repositories</text></g><!--cluster Abstraction--><g class="cluster" data-qualified-name="Repositories.Abstraction" id="ent0002" data-source-line="2"><path d="M592.5,444.27 L685.108,444.27 A3.75,3.75 0 0 1 687.608,446.77 L694.608,466.567 L2103.5,466.567 A2.5,2.5 0 0 1 2106,469.067 L2106,622.25 A2.5,2.5 0 0 1 2103.5,624.75 L592.5,624.75 A2.5,2.5 0 0 1 590,622.25 L590,446.77 A2.5,2.5 0 0 1 592.5,444.27" style="stroke:#000;stroke-width:1.5;" fill="none"/><line x1="590" y1="466.567" x2="694.608" y2="466.567" style="stroke:#000;stroke-width:1.5;"/><text x="594" y="459.265" fill="#000" font-size="14" textLength="91.608" font-weight="700">Abstraction</text></g><!--cluster TypeHandlers--><g class="cluster" data-qualified-name="Repositories.TypeHandlers" id="ent0005" data-source-line="19"><path d="M40.5,723.53 L150.376,723.53 A3.75,3.75 0 0 1 152.876,726.03 L159.876,745.827 L899.5,745.827 A2.5,2.5 0 0 1 902,748.327 L902,868.63 A2.5,2.5 0 0 1 899.5,871.13 L40.5,871.13 A2.5,2.5 0 0 1 38,868.63 L38,726.03 A2.5,2.5 0 0 1 40.5,723.53" style="stroke:#000;stroke-width:1.5;" fill="none"/><line x1="38" y1="745.827" x2="159.876" y2="745.827" style="stroke:#000;stroke-width:1.5;"/><text x="42" y="738.525" fill="#000" font-size="14" textLength="108.876" font-weight="700">TypeHandlers</text></g><!--cluster Entities--><g class="cluster" data-qualified-name="Repositories.Entities" id="ent0008" data-source-line="31"><path d="M32.5,49 L93.841,49 A3.75,3.75 0 0 1 96.341,51.5 L103.341,71.297 L563.5,71.297 A2.5,2.5 0 0 1 566,73.797 L566,597.81 A2.5,2.5 0 0 1 563.5,600.31 L32.5,600.31 A2.5,2.5 0 0 1 30,597.81 L30,51.5 A2.5,2.5 0 0 1 32.5,49" style="stroke:#000;stroke-width:1.5;" fill="none"/><line x1="30" y1="71.297" x2="103.341" y2="71.297" style="stroke:#000;stroke-width:1.5;"/><text x="34" y="63.995" fill="#000" font-size="14" textLength="60.341" font-weight="700">Entities</text></g><!--cluster Configuration--><g class="cluster" data-qualified-name="Repositories.Configuration" id="ent0017" data-source-line="65"><path d="M693.5,1010.14 L802.665,1010.14 A3.75,3.75 0 0 1 805.165,1012.64 L812.165,1032.437 L1160.5,1032.437 A2.5,2.5 0 0 1 1163,1034.937 L1163,1139.24 A2.5,2.5 0 0 1 1160.5,1141.74 L693.5,1141.74 A2.5,2.5 0 0 1 691,1139.24 L691,1012.64 A2.5,2.5 0 0 1 693.5,1010.14" style="stroke:#000;stroke-width:1.5;" fill="none"/><line x1="691" y1="1032.437" x2="812.165" y2="1032.437" style="stroke:#000;stroke-width:1.5;"/><text x="695" y="1025.135" fill="#000" font-size="14" textLength="108.165" font-weight="700">Configuration</text></g><!--class DatabaseClient--><g class="entity" data-qualified-name="Repositories.DatabaseClient" id="ent0019" data-source-line="72"><rect x="963.18" y="668.75" width="843.64" height="276.156" fill="#F1F1F1" style="stroke:#181818;stroke-width:0.5;" rx="2.5" ry="2.5"/><ellipse cx="1321.584" cy="684.75" rx="11" ry="11" fill="#ADD1B2" style="stroke:#181818;stroke-width:1;"/><path d="M1324.553,690.391 Q1323.975,690.688 1323.334,690.828 Q1322.694,690.984 1321.991,690.984 Q1319.491,690.984 1318.162,689.344 Q1316.85,687.688 1316.85,684.563 Q1316.85,681.438 1318.162,679.781 Q1319.491,678.125 1321.991,678.125 Q1322.694,678.125 1323.334,678.281 Q1323.991,678.438 1324.553,678.734 L1324.553,681.453 Q1323.928,680.875 1323.334,680.609 Q1322.741,680.328 1322.116,680.328 Q1320.772,680.328 1320.084,681.406 Q1319.397,682.469 1319.397,684.563 Q1319.397,686.656 1320.084,687.734 Q1320.772,688.797 1322.116,688.797 Q1322.741,688.797 1323.334,688.531 Q1323.928,688.25 1324.553,687.672 L1324.553,690.391 Z " fill="#000"/><g data-visibility-modifier="PACKAGE_PRIVATE_METHOD"><polygon points="1347.084,682.25,1343.084,688.25,1351.084,688.25" fill="#4177AF" style="stroke:#1963A0;stroke-width:1;stroke-linejoin:miter;stroke-miterlimit:10;"/></g><text x="1353.084" y="689.597" fill="#000" font-size="14" textLength="107.331">DatabaseClient</text><line x1="964.18" y1="700.75" x2="1805.82" y2="700.75" style="stroke:#181818;stroke-width:0.5;"/><g data-visibility-modifier="PRIVATE_FIELD"><rect x="971.18" y="711.398" width="6" height="6" fill="none" style="stroke:#C82930;stroke-width:1;"/></g><text x="983.18" y="717.745" fill="#000" font-size="14" textLength="179.724">_connectionString : string</text><line x1="964.18" y1="725.047" x2="1805.82" y2="725.047" style="stroke:#181818;stroke-width:0.5;"/><g data-visibility-modifier="PUBLIC_METHOD"><ellipse cx="974.18" cy="738.695" rx="3" ry="3" fill="#84BE84" style="stroke:#038048;stroke-width:1;"/></g><text x="983.18" y="742.042" fill="#000" font-size="14" textLength="279.392">DatabaseClient(string) : DatabaseClient</text><g data-visibility-modifier="PRIVATE_METHOD"><rect x="971.18" y="751.992" width="6" height="6" fill="#F24D5C" style="stroke:#C82930;stroke-width:1;"/></g><text x="983.18" y="758.339" fill="#000" font-size="14" textLength="442.114">CreateEntityAsync&lt;T>(string, DynamicParameters) : Task&lt;T></text><g data-visibility-modifier="PRIVATE_METHOD"><rect x="971.18" y="768.289" width="6" height="6" fill="#F24D5C" style="stroke:#C82930;stroke-width:1;"/></g><text x="983.18" y="774.636" fill="#000" font-size="14" textLength="470.709">GetSingleEntityAsync&lt;T>(string, DynamicParameters) : Task&lt;T?></text><g data-visibility-modifier="PRIVATE_METHOD"><rect x="971.18" y="784.586" width="6" height="6" fill="#F24D5C" style="stroke:#C82930;stroke-width:1;"/></g><text x="983.18" y="790.933" fill="#000" font-size="14" textLength="498.285">GetMultipleEntitiesAsync&lt;T>(string, DynamicParameters) : Task&lt;T[]></text><g data-visibility-modifier="PUBLIC_METHOD"><ellipse cx="974.18" cy="803.883" rx="3" ry="3" fill="#84BE84" style="stroke:#038048;stroke-width:1;"/></g><text x="983.18" y="807.229" fill="#000" font-size="14" textLength="709.488">CreateStationAsync(PhysicalAddress, IPAddress?, int?, byte?, DateTimeOffset) : Task&lt;StationEntity></text><g data-visibility-modifier="PUBLIC_METHOD"><ellipse cx="974.18" cy="820.18" rx="3" ry="3" fill="#84BE84" style="stroke:#038048;stroke-width:1;"/></g><text x="983.18" y="823.526" fill="#000" font-size="14" textLength="706.966">GetSingleStationAsync(bool, long?, bool, IPAddress?, bool, PhysicalAddress?) : Task&lt;StationEntity?></text><g data-visibility-modifier="PUBLIC_METHOD"><ellipse cx="974.18" cy="836.477" rx="3" ry="3" fill="#84BE84" style="stroke:#038048;stroke-width:1;"/></g><text x="983.18" y="839.823" fill="#000" font-size="14" textLength="361.457">GetMultipleStationsAsync() : Task&lt;StationEntity[]></text><g data-visibility-modifier="PUBLIC_METHOD"><ellipse cx="974.18" cy="852.773" rx="3" ry="3" fill="#84BE84" style="stroke:#038048;stroke-width:1;"/></g><text x="983.18" y="856.12" fill="#000" font-size="14" textLength="817.64">UpdateStationAsync(long id, bool, IPAddress?, bool, int?, bool, byte?, bool, DateTimeOffset?) : Task&lt;StationEntity?></text><g data-visibility-modifier="PUBLIC_METHOD"><ellipse cx="974.18" cy="869.07" rx="3" ry="3" fill="#84BE84" style="stroke:#038048;stroke-width:1;"/></g><text x="983.18" y="872.417" fill="#000" font-size="14" textLength="369.831">MarkOfflineStations(DateTimeOffset) : Task&lt;long[]></text><g data-visibility-modifier="PUBLIC_METHOD"><ellipse cx="974.18" cy="885.367" rx="3" ry="3" fill="#84BE84" style="stroke:#038048;stroke-width:1;"/></g><text x="983.18" y="888.714" fill="#000" font-size="14" textLength="457.967">CreateSwitchAsync(long, byte, bool, bool?) : Task&lt;SwitchEntity></text><g data-visibility-modifier="PUBLIC_METHOD"><ellipse cx="974.18" cy="901.664" rx="3" ry="3" fill="#84BE84" style="stroke:#038048;stroke-width:1;"/></g><text x="983.18" y="905.011" fill="#000" font-size="14" textLength="579.346">GetSingleSwitchAsync(bool, long?, bool, long?, bool, byte?) : Task&lt;SwitchEntity?></text><g data-visibility-modifier="PUBLIC_METHOD"><ellipse cx="974.18" cy="917.961" rx="3" ry="3" fill="#84BE84" style="stroke:#038048;stroke-width:1;"/></g><text x="983.18" y="921.308" fill="#000" font-size="14" textLength="439.551">GetMultipleSwitchesAsync(bool, long?) : Task&lt;SwitchEntity[]></text><g data-visibility-modifier="PUBLIC_METHOD"><ellipse cx="974.18" cy="934.258" rx="3" ry="3" fill="#84BE84" style="stroke:#038048;stroke-width:1;"/></g><text x="983.18" y="937.604" fill="#000" font-size="14" textLength="514.145">UpdateSwitchAsync(long, bool, bool?, bool, bool?) : Task&lt;SwitchEntity?></text></g><path d="M1181.58,1004.91 L1181.58,1043.742 L1140.907,1097.288 L1181.58,1051.742 L1181.58,1090.574 A0,0 0 0 0 1181.58,1090.574 L1740.061,1090.574 A0,0 0 0 0 1740.061,1090.574 L1740.061,1014.91 L1730.061,1004.91 L1181.58,1004.91 A0,0 0 0 0 1181.58,1004.91" style="stroke:#181818;stroke-width:0.5;" fill="#FEFFDD"/><path d="M1730.061,1004.91 L1730.061,1014.91 L1740.061,1014.91 L1730.061,1004.91" style="stroke:#181818;stroke-width:0.5;" fill="#FEFFDD"/><text x="1187.58" y="1021.977" fill="#000" font-size="13" textLength="439.905">Used to configure dependency injection to expose package-defined</text><text x="1187.58" y="1037.11" fill="#000" font-size="13" textLength="275.914">utilities through their interface definitions.</text><text x="1187.58" y="1052.243" fill="#000" font-size="13" textLength="537.481">This approach prevents exposing the concrete interface implementations publicly.</text><text x="1187.58" y="1067.375" fill="#000" font-size="13"> </text><text x="1187.58" y="1082.508" fill="#000" font-size="13" textLength="211.136">Shall be called from Program.cs.</text><path d="M1181.58,1100.574 L1181.58,1124.273 L900.931,1113.585 L1181.58,1132.273 L1181.58,1155.973 A0,0 0 0 0 1181.58,1155.973 L1792.423,1155.973 A0,0 0 0 0 1792.423,1155.973 L1792.423,1110.574 L1782.423,1100.574 L1181.58,1100.574 A0,0 0 0 0 1181.58,1100.574" style="stroke:#181818;stroke-width:0.5;" fill="#FEFFDD"/><path d="M1782.423,1100.574 L1782.423,1110.574 L1792.423,1110.574 L1782.423,1100.574" style="stroke:#181818;stroke-width:0.5;" fill="#FEFFDD"/><text x="1187.58" y="1117.641" fill="#000" font-size="13" textLength="589.843">Configures Dapper utilities to be able to successfully exchange data with database server.</text><text x="1187.58" y="1132.774" fill="#000" font-size="13"> </text><text x="1187.58" y="1147.907" fill="#000" font-size="13" textLength="211.136">Shall be called from Program.cs.</text><g class="entity" data-qualified-name="Repositories.GMN31" id="ent0032" data-source-line="120"><path d="M21.54,1065.31 L21.54,1105.576 L364.468,1105.576 L364.468,1075.31 L354.468,1065.31 L21.54,1065.31" style="stroke:#181818;stroke-width:0.5;" fill="#FEFFDD"/><path d="M354.468,1065.31 L354.468,1075.31 L364.468,1075.31 L354.468,1065.31" style="stroke:#181818;stroke-width:1;" fill="#FEFFDD"/><text x="27.54" y="1082.377" fill="#000" font-size="13" textLength="317.795">Provides custom serialization and deserialization</text><text x="27.54" y="1097.51" fill="#000" font-size="13" textLength="73.963">for Dapper.</text></g><!--class IStationsRepository--><g class="entity" data-qualified-name="Repositories.Abstraction.IStationsRepository" id="ent0003" data-source-line="3"><rect x="1246.18" y="479.27" width="843.64" height="129.484" fill="#F1F1F1" style="stroke:#181818;stroke-width:0.5;" rx="2.5" ry="2.5"/><ellipse cx="1590.116" cy="495.27" rx="11" ry="11" fill="#B4A7E5" style="stroke:#181818;stroke-width:1;"/><path d="M1586.038,491.036 L1586.038,488.879 L1593.429,488.879 L1593.429,491.036 L1590.96,491.036 L1590.96,499.114 L1593.429,499.114 L1593.429,501.27 L1586.038,501.27 L1586.038,499.114 L1588.507,499.114 L1588.507,491.036 L1586.038,491.036 Z " fill="#000"/><g data-visibility-modifier="PUBLIC_METHOD"><ellipse cx="1615.616" cy="496.77" rx="3" ry="3" fill="#84BE84" style="stroke:#038048;stroke-width:1;"/></g><text x="1621.616" y="500.117" fill="#000" font-size="14" textLength="136.268" font-style="italic">IStationsRepository</text><line x1="1247.18" y1="511.27" x2="2088.82" y2="511.27" style="stroke:#181818;stroke-width:0.5;"/><line x1="1247.18" y1="519.27" x2="2088.82" y2="519.27" style="stroke:#181818;stroke-width:0.5;"/><g data-visibility-modifier="PUBLIC_METHOD"><ellipse cx="1257.18" cy="532.918" rx="3" ry="3" fill="#84BE84" style="stroke:#038048;stroke-width:1;"/></g><text x="1266.18" y="536.265" fill="#000" font-size="14" textLength="709.488">CreateStationAsync(PhysicalAddress, IPAddress?, int?, byte?, DateTimeOffset) : Task&lt;StationEntity></text><g data-visibility-modifier="PUBLIC_METHOD"><ellipse cx="1257.18" cy="549.215" rx="3" ry="3" fill="#84BE84" style="stroke:#038048;stroke-width:1;"/></g><text x="1266.18" y="552.562" fill="#000" font-size="14" textLength="706.966">GetSingleStationAsync(bool, long?, bool, IPAddress?, bool, PhysicalAddress?) : Task&lt;StationEntity?></text><g data-visibility-modifier="PUBLIC_METHOD"><ellipse cx="1257.18" cy="565.512" rx="3" ry="3" fill="#84BE84" style="stroke:#038048;stroke-width:1;"/></g><text x="1266.18" y="568.859" fill="#000" font-size="14" textLength="361.457">GetMultipleStationsAsync() : Task&lt;StationEntity[]></text><g data-visibility-modifier="PUBLIC_METHOD"><ellipse cx="1257.18" cy="581.809" rx="3" ry="3" fill="#84BE84" style="stroke:#038048;stroke-width:1;"/></g><text x="1266.18" y="585.156" fill="#000" font-size="14" textLength="817.64">UpdateStationAsync(long id, bool, IPAddress?, bool, int?, bool, byte?, bool, DateTimeOffset?) : Task&lt;StationEntity?></text><g data-visibility-modifier="PUBLIC_METHOD"><ellipse cx="1257.18" cy="598.106" rx="3" ry="3" fill="#84BE84" style="stroke:#038048;stroke-width:1;"/></g><text x="1266.18" y="601.453" fill="#000" font-size="14" textLength="369.831">MarkOfflineStations(DateTimeOffset) : Task&lt;long[]></text></g><!--class ISwitchesRepository--><g class="entity" data-qualified-name="Repositories.Abstraction.ISwitchesRepository" id="ent0004" data-source-line="11"><rect x="606.33" y="487.42" width="605.346" height="113.188" fill="#F1F1F1" style="stroke:#181818;stroke-width:0.5;" rx="2.5" ry="2.5"/><ellipse cx="828.556" cy="503.42" rx="11" ry="11" fill="#B4A7E5" style="stroke:#181818;stroke-width:1;"/><path d="M824.477,499.186 L824.477,497.029 L831.868,497.029 L831.868,499.186 L829.399,499.186 L829.399,507.264 L831.868,507.264 L831.868,509.42 L824.477,509.42 L824.477,507.264 L826.946,507.264 L826.946,499.186 L824.477,499.186 Z " fill="#000"/><g data-visibility-modifier="PUBLIC_METHOD"><ellipse cx="854.056" cy="504.92" rx="3" ry="3" fill="#84BE84" style="stroke:#038048;stroke-width:1;"/></g><text x="860.056" y="508.267" fill="#000" font-size="14" textLength="141.395" font-style="italic">ISwitchesRepository</text><line x1="607.33" y1="519.42" x2="1210.676" y2="519.42" style="stroke:#181818;stroke-width:0.5;"/><line x1="607.33" y1="527.42" x2="1210.676" y2="527.42" style="stroke:#181818;stroke-width:0.5;"/><g data-visibility-modifier="PUBLIC_METHOD"><ellipse cx="617.33" cy="541.068" rx="3" ry="3" fill="#84BE84" style="stroke:#038048;stroke-width:1;"/></g><text x="626.33" y="544.415" fill="#000" font-size="14" textLength="457.967">CreateSwitchAsync(long, byte, bool, bool?) : Task&lt;SwitchEntity></text><g data-visibility-modifier="PUBLIC_METHOD"><ellipse cx="617.33" cy="557.365" rx="3" ry="3" fill="#84BE84" style="stroke:#038048;stroke-width:1;"/></g><text x="626.33" y="560.712" fill="#000" font-size="14" textLength="579.346">GetSingleSwitchAsync(bool, long?, bool, long?, bool, byte?) : Task&lt;SwitchEntity?></text><g data-visibility-modifier="PUBLIC_METHOD"><ellipse cx="617.33" cy="573.662" rx="3" ry="3" fill="#84BE84" style="stroke:#038048;stroke-width:1;"/></g><text x="626.33" y="577.009" fill="#000" font-size="14" textLength="439.551">GetMultipleSwitchesAsync(bool, long?) : Task&lt;SwitchEntity[]></text><g data-visibility-modifier="PUBLIC_METHOD"><ellipse cx="617.33" cy="589.959" rx="3" ry="3" fill="#84BE84" style="stroke:#038048;stroke-width:1;"/></g><text x="626.33" y="593.306" fill="#000" font-size="14" textLength="514.145">UpdateSwitchAsync(long, bool, bool?, bool, bool?) : Task&lt;SwitchEntity?></text></g><!--class IPAddressHandler--><g class="entity" data-qualified-name="Repositories.TypeHandlers.IPAddressHandler" id="ent0006" data-source-line="20"><rect x="81.71" y="766.53" width="358.589" height="80.594" fill="#F1F1F1" style="stroke:#181818;stroke-width:0.5;" rx="2.5" ry="2.5"/><ellipse cx="189.252" cy="782.53" rx="11" ry="11" fill="#ADD1B2" style="stroke:#181818;stroke-width:1;"/><path d="M192.221,788.171 Q191.643,788.468 191.002,788.608 Q190.362,788.764 189.659,788.764 Q187.159,788.764 185.831,787.124 Q184.518,785.468 184.518,782.343 Q184.518,779.218 185.831,777.561 Q187.159,775.905 189.659,775.905 Q190.362,775.905 191.002,776.061 Q191.659,776.218 192.221,776.514 L192.221,779.233 Q191.596,778.655 191.002,778.389 Q190.409,778.108 189.784,778.108 Q188.44,778.108 187.752,779.186 Q187.065,780.249 187.065,782.343 Q187.065,784.436 187.752,785.514 Q188.44,786.577 189.784,786.577 Q190.409,786.577 191.002,786.311 Q191.596,786.03 192.221,785.452 L192.221,788.171 Z " fill="#000"/><g data-visibility-modifier="PACKAGE_PRIVATE_METHOD"><polygon points="214.752,780.03,210.752,786.03,218.752,786.03" fill="#4177AF" style="stroke:#1963A0;stroke-width:1;stroke-linejoin:miter;stroke-miterlimit:10;"/></g><text x="220.752" y="787.377" fill="#000" font-size="14" textLength="124.004">IPAddressHandler</text><line x1="82.71" y1="798.53" x2="439.299" y2="798.53" style="stroke:#181818;stroke-width:0.5;"/><line x1="82.71" y1="806.53" x2="439.299" y2="806.53" style="stroke:#181818;stroke-width:0.5;"/><g data-visibility-modifier="PUBLIC_METHOD"><ellipse cx="92.71" cy="820.178" rx="3" ry="3" fill="#84BE84" style="stroke:#038048;stroke-width:1;"/></g><text x="101.71" y="823.525" fill="#000" font-size="14" textLength="332.589">SetValue(IDbDataParameter, IPAddress?) : void</text><g data-visibility-modifier="PUBLIC_METHOD"><ellipse cx="92.71" cy="836.475" rx="3" ry="3" fill="#84BE84" style="stroke:#038048;stroke-width:1;"/></g><text x="101.71" y="839.822" fill="#000" font-size="14" textLength="190.107">Parse(object?) : IPAddress?</text></g><!--class PhysicalAddressHandler--><g class="entity" data-qualified-name="Repositories.TypeHandlers.PhysicalAddressHandler" id="ent0007" data-source-line="25"><rect x="475.52" y="766.53" width="402.968" height="80.594" fill="#F1F1F1" style="stroke:#181818;stroke-width:0.5;" rx="2.5" ry="2.5"/><ellipse cx="583.062" cy="782.53" rx="11" ry="11" fill="#ADD1B2" style="stroke:#181818;stroke-width:1;"/><path d="M586.031,788.171 Q585.453,788.468 584.812,788.608 Q584.172,788.764 583.469,788.764 Q580.969,788.764 579.641,787.124 Q578.328,785.468 578.328,782.343 Q578.328,779.218 579.641,777.561 Q580.969,775.905 583.469,775.905 Q584.172,775.905 584.812,776.061 Q585.469,776.218 586.031,776.514 L586.031,779.233 Q585.406,778.655 584.812,778.389 Q584.219,778.108 583.594,778.108 Q582.25,778.108 581.562,779.186 Q580.875,780.249 580.875,782.343 Q580.875,784.436 581.562,785.514 Q582.25,786.577 583.594,786.577 Q584.219,786.577 584.812,786.311 Q585.406,786.03 586.031,785.452 L586.031,788.171 Z " fill="#000"/><g data-visibility-modifier="PACKAGE_PRIVATE_METHOD"><polygon points="608.562,780.03,604.562,786.03,612.562,786.03" fill="#4177AF" style="stroke:#1963A0;stroke-width:1;stroke-linejoin:miter;stroke-miterlimit:10;"/></g><text x="614.562" y="787.377" fill="#000" font-size="14" textLength="168.383">PhysicalAddressHandler</text><line x1="476.52" y1="798.53" x2="877.488" y2="798.53" style="stroke:#181818;stroke-width:0.5;"/><line x1="476.52" y1="806.53" x2="877.488" y2="806.53" style="stroke:#181818;stroke-width:0.5;"/><g data-visibility-modifier="PUBLIC_METHOD"><ellipse cx="486.52" cy="820.178" rx="3" ry="3" fill="#84BE84" style="stroke:#038048;stroke-width:1;"/></g><text x="495.52" y="823.525" fill="#000" font-size="14" textLength="376.968">SetValue(IDbDataParameter, PhysicalAddress?) : void</text><g data-visibility-modifier="PUBLIC_METHOD"><ellipse cx="486.52" cy="836.475" rx="3" ry="3" fill="#84BE84" style="stroke:#038048;stroke-width:1;"/></g><text x="495.52" y="839.822" fill="#000" font-size="14" textLength="234.486">Parse(object?) : PhysicalAddress?</text></g><!--class StationEntity--><g class="entity" data-qualified-name="Repositories.Entities.StationEntity" id="ent0009" data-source-line="32"><rect x="231.13" y="84" width="249.74" height="145.781" fill="#F1F1F1" style="stroke:#181818;stroke-width:0.5;" rx="2.5" ry="2.5"/><ellipse cx="300.928" cy="100" rx="11" ry="11" fill="#FF8F00" style="stroke:#181818;stroke-width:1;"/><path d="M302.131,100.141 Q302.49,100.219 302.756,100.5 Q303.037,100.766 303.428,101.547 L305.662,106 L302.975,106 L301.475,102.875 Q301.412,102.734 301.303,102.5 Q300.647,101.109 299.756,101.109 L298.975,101.109 L298.975,106 L296.537,106 L296.537,93.609 L300.068,93.609 Q302.459,93.609 303.49,94.453 Q304.537,95.297 304.537,97.203 Q304.537,98.484 303.912,99.25 Q303.303,100 302.131,100.141 Z M298.975,95.672 L298.975,99.047 L300.131,99.047 Q301.147,99.047 301.568,98.656 Q302.006,98.25 302.006,97.344 Q302.006,96.453 301.568,96.063 Q301.147,95.672 300.131,95.672 L298.975,95.672 Z " fill="#000"/><g data-visibility-modifier="PUBLIC_METHOD"><ellipse cx="326.428" cy="101.5" rx="3" ry="3" fill="#84BE84" style="stroke:#038048;stroke-width:1;"/></g><text x="332.428" y="104.847" fill="#000" font-size="14" textLength="90.645">StationEntity</text><line x1="232.13" y1="116" x2="479.87" y2="116" style="stroke:#181818;stroke-width:0.5;"/><g data-visibility-modifier="PUBLIC_FIELD"><ellipse cx="242.13" cy="129.648" rx="3" ry="3" fill="none" style="stroke:#038048;stroke-width:1;"/></g><text x="251.13" y="132.995" fill="#000" font-size="14" textLength="56.848">Id : long</text><g data-visibility-modifier="PUBLIC_FIELD"><ellipse cx="242.13" cy="145.945" rx="3" ry="3" fill="none" style="stroke:#038048;stroke-width:1;"/></g><text x="251.13" y="149.292" fill="#000" font-size="14" textLength="211.538">MacAddress : PhysicalAddress</text><text x="251.13" y="165.589" fill="#000" font-size="14" textLength="159.25">IpAddress : IPAddress?</text><text x="251.13" y="181.886" fill="#000" font-size="14" textLength="89.906">ApiPort : int?</text><text x="251.13" y="198.183" fill="#000" font-size="14" textLength="127.244">ApiVersion : byte?</text><text x="251.13" y="214.479" fill="#000" font-size="14" textLength="223.74">LastHeartbeat : DateTimeOffset</text><line x1="232.13" y1="221.781" x2="479.87" y2="221.781" style="stroke:#181818;stroke-width:0.5;"/></g><!--class StationEntityExtensions--><g class="entity" data-qualified-name="Repositories.Entities.StationEntityExtensions" id="ent0010" data-source-line="41"><rect x="45.58" y="314.23" width="274.842" height="80.594" fill="#F1F1F1" style="stroke:#181818;stroke-width:0.5;" rx="2.5" ry="2.5"/><ellipse cx="89.917" cy="330.23" rx="11" ry="11" fill="#ADD1B2" style="stroke:#181818;stroke-width:1;"/><path d="M92.886,335.871 Q92.308,336.168 91.667,336.308 Q91.027,336.464 90.324,336.464 Q87.824,336.464 86.496,334.824 Q85.183,333.168 85.183,330.043 Q85.183,326.918 86.496,325.261 Q87.824,323.605 90.324,323.605 Q91.027,323.605 91.667,323.761 Q92.324,323.918 92.886,324.214 L92.886,326.933 Q92.261,326.355 91.667,326.089 Q91.074,325.808 90.449,325.808 Q89.105,325.808 88.417,326.886 Q87.73,327.949 87.73,330.043 Q87.73,332.136 88.417,333.214 Q89.105,334.277 90.449,334.277 Q91.074,334.277 91.667,334.011 Q92.261,333.73 92.886,333.152 L92.886,335.871 Z " fill="#000"/><g data-visibility-modifier="PUBLIC_METHOD"><ellipse cx="115.417" cy="331.73" rx="3" ry="3" fill="#84BE84" style="stroke:#038048;stroke-width:1;"/></g><text x="121.417" y="335.077" fill="#000" font-size="14" textLength="166.667">StationEntityExtensions</text><line x1="46.58" y1="346.23" x2="319.422" y2="346.23" style="stroke:#181818;stroke-width:0.5;"/><line x1="46.58" y1="354.23" x2="319.422" y2="354.23" style="stroke:#181818;stroke-width:0.5;"/><g data-visibility-modifier="PUBLIC_METHOD"><ellipse cx="56.58" cy="367.878" rx="3" ry="3" fill="#84BE84" style="stroke:#038048;stroke-width:1;"/></g><text x="65.58" y="371.225" fill="#000" font-size="14" textLength="239.101" text-decoration="underline">IsOnline(this StationEntity) : bool?</text><g data-visibility-modifier="PUBLIC_METHOD"><ellipse cx="56.58" cy="384.175" rx="3" ry="3" fill="#84BE84" style="stroke:#038048;stroke-width:1;"/></g><text x="65.58" y="387.522" fill="#000" font-size="14" textLength="248.842" text-decoration="underline">BaseApiUrl(this StationEntity) : Uri?</text></g><!--class SwitchEntity--><g class="entity" data-qualified-name="Repositories.Entities.SwitchEntity" id="ent0011" data-source-line="46"><rect x="392.05" y="289.78" width="157.899" height="129.484" fill="#F1F1F1" style="stroke:#181818;stroke-width:0.5;" rx="2.5" ry="2.5"/><ellipse cx="419.534" cy="305.78" rx="11" ry="11" fill="#FF8F00" style="stroke:#181818;stroke-width:1;"/><path d="M420.737,305.921 Q421.096,305.999 421.362,306.28 Q421.643,306.546 422.034,307.327 L424.268,311.78 L421.58,311.78 L420.08,308.655 Q420.018,308.514 419.909,308.28 Q419.252,306.889 418.362,306.889 L417.58,306.889 L417.58,311.78 L415.143,311.78 L415.143,299.389 L418.674,299.389 Q421.065,299.389 422.096,300.233 Q423.143,301.077 423.143,302.983 Q423.143,304.264 422.518,305.03 Q421.909,305.78 420.737,305.921 Z M417.58,301.452 L417.58,304.827 L418.737,304.827 Q419.752,304.827 420.174,304.436 Q420.612,304.03 420.612,303.124 Q420.612,302.233 420.174,301.843 Q419.752,301.452 418.737,301.452 L417.58,301.452 Z " fill="#000"/><g data-visibility-modifier="PUBLIC_METHOD"><ellipse cx="441.308" cy="307.28" rx="3" ry="3" fill="#84BE84" style="stroke:#038048;stroke-width:1;"/></g><text x="447.308" y="310.627" fill="#000" font-size="14" textLength="87.158">SwitchEntity</text><line x1="393.05" y1="321.78" x2="548.949" y2="321.78" style="stroke:#181818;stroke-width:0.5;"/><text x="398.05" y="338.775" fill="#000" font-size="14" textLength="56.848">Id : long</text><text x="398.05" y="355.072" fill="#000" font-size="14" textLength="106.62">StationId : long</text><text x="398.05" y="371.369" fill="#000" font-size="14" textLength="94.438">LocalId : byte</text><text x="398.05" y="387.666" fill="#000" font-size="14" textLength="145.899">ExpectedState : bool</text><text x="398.05" y="403.963" fill="#000" font-size="14" textLength="132.118">ActualState : bool?</text><line x1="393.05" y1="411.264" x2="548.949" y2="411.264" style="stroke:#181818;stroke-width:0.5;"/></g><!--class SwitchEntityExtensions--><g class="entity" data-qualified-name="Repositories.Entities.SwitchEntityExtensions" id="ent0012" data-source-line="54"><rect x="175.63" y="503.71" width="360.742" height="80.594" fill="#F1F1F1" style="stroke:#181818;stroke-width:0.5;" rx="2.5" ry="2.5"/><ellipse cx="264.661" cy="519.71" rx="11" ry="11" fill="#ADD1B2" style="stroke:#181818;stroke-width:1;"/><path d="M267.63,525.351 Q267.051,525.648 266.411,525.788 Q265.77,525.944 265.067,525.944 Q262.567,525.944 261.239,524.304 Q259.926,522.648 259.926,519.523 Q259.926,516.398 261.239,514.741 Q262.567,513.085 265.067,513.085 Q265.77,513.085 266.411,513.241 Q267.067,513.398 267.63,513.694 L267.63,516.413 Q267.005,515.835 266.411,515.569 Q265.817,515.288 265.192,515.288 Q263.848,515.288 263.161,516.366 Q262.473,517.429 262.473,519.523 Q262.473,521.616 263.161,522.694 Q263.848,523.757 265.192,523.757 Q265.817,523.757 266.411,523.491 Q267.005,523.21 267.63,522.632 L267.63,525.351 Z " fill="#000"/><g data-visibility-modifier="PUBLIC_METHOD"><ellipse cx="290.161" cy="521.21" rx="3" ry="3" fill="#84BE84" style="stroke:#038048;stroke-width:1;"/></g><text x="296.161" y="524.557" fill="#000" font-size="14" textLength="163.181">SwitchEntityExtensions</text><line x1="176.63" y1="535.71" x2="535.372" y2="535.71" style="stroke:#181818;stroke-width:0.5;"/><line x1="176.63" y1="543.71" x2="535.372" y2="543.71" style="stroke:#181818;stroke-width:0.5;"/><g data-visibility-modifier="PUBLIC_METHOD"><ellipse cx="186.63" cy="557.358" rx="3" ry="3" fill="#84BE84" style="stroke:#038048;stroke-width:1;"/></g><text x="195.63" y="560.705" fill="#000" font-size="14" textLength="228.184" text-decoration="underline">IsOnline(this SwitchEntity) : bool</text><g data-visibility-modifier="PUBLIC_METHOD"><ellipse cx="186.63" cy="573.655" rx="3" ry="3" fill="#84BE84" style="stroke:#038048;stroke-width:1;"/></g><text x="195.63" y="577.002" fill="#000" font-size="14" textLength="334.742" text-decoration="underline">SwitchUrl(this SwitchEntity, StationEntity) : Uri?</text></g><!--class RepositoriesConfiguration--><g class="entity" data-qualified-name="Repositories.Configuration.RepositoriesConfiguration" id="ent0018" data-source-line="66"><rect x="707.1" y="1045.14" width="439.807" height="80.594" fill="#F1F1F1" style="stroke:#181818;stroke-width:0.5;" rx="2.5" ry="2.5"/><ellipse cx="826.489" cy="1061.14" rx="11" ry="11" fill="#ADD1B2" style="stroke:#181818;stroke-width:1;"/><path d="M829.458,1066.781 Q828.88,1067.078 828.239,1067.218 Q827.599,1067.374 826.895,1067.374 Q824.395,1067.374 823.067,1065.734 Q821.755,1064.078 821.755,1060.953 Q821.755,1057.828 823.067,1056.171 Q824.395,1054.515 826.895,1054.515 Q827.599,1054.515 828.239,1054.671 Q828.895,1054.828 829.458,1055.124 L829.458,1057.843 Q828.833,1057.265 828.239,1056.999 Q827.645,1056.718 827.02,1056.718 Q825.677,1056.718 824.989,1057.796 Q824.302,1058.859 824.302,1060.953 Q824.302,1063.046 824.989,1064.124 Q825.677,1065.187 827.02,1065.187 Q827.645,1065.187 828.239,1064.921 Q828.833,1064.64 829.458,1064.062 L829.458,1066.781 Z " fill="#000"/><g data-visibility-modifier="PUBLIC_METHOD"><ellipse cx="851.989" cy="1062.64" rx="3" ry="3" fill="#84BE84" style="stroke:#038048;stroke-width:1;"/></g><text x="857.989" y="1065.987" fill="#000" font-size="14" textLength="181.528">RepositoriesConfiguration</text><line x1="708.1" y1="1077.14" x2="1145.907" y2="1077.14" style="stroke:#181818;stroke-width:0.5;"/><line x1="708.1" y1="1085.14" x2="1145.907" y2="1085.14" style="stroke:#181818;stroke-width:0.5;"/><g data-visibility-modifier="PUBLIC_METHOD"><ellipse cx="718.1" cy="1098.788" rx="3" ry="3" fill="#84BE84" style="stroke:#038048;stroke-width:1;"/></g><text x="727.1" y="1102.135" fill="#000" font-size="14" textLength="413.807" text-decoration="underline">ConfigureApplicationBuilder(IHostApplicationBuilder) : void</text><g data-visibility-modifier="PUBLIC_METHOD"><ellipse cx="718.1" cy="1115.085" rx="3" ry="3" fill="#84BE84" style="stroke:#038048;stroke-width:1;"/></g><text x="727.1" y="1118.432" fill="#000" font-size="14" textLength="173.831" text-decoration="underline">ConfigureDapper() : void</text></g><!--reverse link StationEntity to StationEntityExtensions--><g class="link" data-entity-1="ent0009" data-entity-2="ent0010" id="lnk13" data-source-line="59" data-link-type="dependency"><path d="M288.758,233.926 C263.738,262.226 239.31,289.85 218.07,313.87" style="stroke:#181818;stroke-width:1;" fill="none" id="StationEntity-backto-StationEntityExtensions" codeLine="59"/><polygon points="292.07,230.18,283.112,234.273,288.758,233.926,289.106,239.572,292.07,230.18" fill="#181818" style="stroke:#181818;stroke-width:1;stroke-linejoin:miter;stroke-miterlimit:10;"/></g><!--reverse link SwitchEntity to SwitchEntityExtensions--><g class="link" data-entity-1="ent0011" data-entity-2="ent0012" id="lnk14" data-source-line="60" data-link-type="dependency"><path d="M429.135,423.782 C412.085,451.572 395.26,479 380.35,503.31" style="stroke:#181818;stroke-width:1;" fill="none" id="SwitchEntity-backto-SwitchEntityExtensions" codeLine="60"/><polygon points="431.75,419.52,423.634,425.099,429.135,423.782,430.453,429.283,431.75,419.52" fill="#181818" style="stroke:#181818;stroke-width:1;stroke-linejoin:miter;stroke-miterlimit:10;"/></g><!--reverse link StationEntity to SwitchEntityExtensions--><g class="link" data-entity-1="ent0009" data-entity-2="ent0012" id="lnk15" data-source-line="61" data-link-type="dependency"><path d="M356,234.88 C356,315.65 356,438.78 356,503.22" style="stroke:#181818;stroke-width:1;" fill="none" id="StationEntity-backto-SwitchEntityExtensions" codeLine="61"/><polygon points="356,229.88,352,238.88,356,234.88,360,238.88,356,229.88" fill="#181818" style="stroke:#181818;stroke-width:1;stroke-linejoin:miter;stroke-miterlimit:10;"/></g><!--reverse link StationEntityExtensions to SwitchEntityExtensions--><g class="link" data-entity-1="ent0010" data-entity-2="ent0012" id="lnk16" data-source-line="62" data-link-type="dependency"><path d="M223.081,398.964 C252.441,430.774 290.02,471.5 319.36,503.31" style="stroke:#181818;stroke-width:1;" fill="none" id="StationEntityExtensions-backto-SwitchEntityExtensions" codeLine="62"/><polygon points="219.69,395.29,222.855,404.617,223.081,398.964,228.734,399.191,219.69,395.29" fill="#181818" style="stroke:#181818;stroke-width:1;stroke-linejoin:miter;stroke-miterlimit:10;"/></g><!--reverse link IStationsRepository to DatabaseClient--><g class="link" data-entity-1="ent0003" data-entity-2="ent0019" id="lnk20" data-source-line="89" data-link-type="extension"><path d="M1585.174,621.348 C1565.534,639.448 1556.61,647.67 1534.2,668.32" style="stroke:#181818;stroke-width:1;stroke-dasharray:7,7;" fill="none" id="IStationsRepository-backto-DatabaseClient" codeLine="89"/><polygon points="1598.41,609.15,1581.108,616.936,1589.24,625.76,1598.41,609.15" fill="none" style="stroke:#181818;stroke-width:1;stroke-linejoin:miter;stroke-miterlimit:10;"/></g><!--reverse link IStationsRepository to RepositoriesConfiguration--><g class="link" data-entity-1="ent0003" data-entity-2="ent0018" id="lnk21" data-source-line="90" data-link-type="dependency"><path d="M1791.062,612.091 C1811.552,628.721 1826.16,645.49 1838,668.75 C1893.67,778.13 1921.11,854.59 1838,944.91 C1786.13,1001.27 1225.79,985.61 1151,1002.14 C1106.1,1012.07 1058.02,1028.86 1017.96,1044.7" style="stroke:#181818;stroke-width:1;" fill="none" id="IStationsRepository-backto-RepositoriesConfiguration" codeLine="90"/><polygon points="1787.18,608.94,1791.647,617.717,1791.062,612.091,1796.689,611.506,1787.18,608.94" fill="#181818" style="stroke:#181818;stroke-width:1;stroke-linejoin:miter;stroke-miterlimit:10;"/></g><!--reverse link ISwitchesRepository to DatabaseClient--><g class="link" data-entity-1="ent0004" data-entity-2="ent0019" id="lnk22" data-source-line="92" data-link-type="extension"><path d="M1026.896,609.61 C1063.506,629.67 1090.77,644.61 1134.39,668.51" style="stroke:#181818;stroke-width:1;stroke-dasharray:7,7;" fill="none" id="ISwitchesRepository-backto-DatabaseClient" codeLine="92"/><polygon points="1011.11,600.96,1024.012,614.871,1029.779,604.348,1011.11,600.96" fill="none" style="stroke:#181818;stroke-width:1;stroke-linejoin:miter;stroke-miterlimit:10;"/></g><!--reverse link ISwitchesRepository to RepositoriesConfiguration--><g class="link" data-entity-1="ent0004" data-entity-2="ent0018" id="lnk23" data-source-line="93" data-link-type="dependency"><path d="M911.037,605.957 C914.687,715.377 922.52,950.28 925.68,1044.92" style="stroke:#181818;stroke-width:1;" fill="none" id="ISwitchesRepository-backto-RepositoriesConfiguration" codeLine="93"/><polygon points="910.87,600.96,907.172,610.088,911.037,605.957,915.168,609.822,910.87,600.96" fill="#181818" style="stroke:#181818;stroke-width:1;stroke-linejoin:miter;stroke-miterlimit:10;"/></g><!--reverse link StationEntity to IStationsRepository--><g class="link" data-entity-1="ent0009" data-entity-2="ent0003" id="lnk24" data-source-line="95" data-link-type="dependency"><path d="M486.008,196.048 C708.898,261.478 1172.27,397.49 1449.32,478.82" style="stroke:#181818;stroke-width:1;" fill="none" id="StationEntity-backto-IStationsRepository" codeLine="95"/><polygon points="481.21,194.64,488.719,201.013,486.008,196.048,490.972,193.337,481.21,194.64" fill="#181818" style="stroke:#181818;stroke-width:1;stroke-linejoin:miter;stroke-miterlimit:10;"/></g><!--reverse link SwitchEntity to ISwitchesRepository--><g class="link" data-entity-1="ent0011" data-entity-2="ent0004" id="lnk25" data-source-line="97" data-link-type="dependency"><path d="M554.917,391.447 C618.397,418.617 704.15,455.32 778.29,487.06" style="stroke:#181818;stroke-width:1;" fill="none" id="SwitchEntity-backto-ISwitchesRepository" codeLine="97"/><polygon points="550.32,389.48,557.02,396.699,554.917,391.447,560.168,389.344,550.32,389.48" fill="#181818" style="stroke:#181818;stroke-width:1;stroke-linejoin:miter;stroke-miterlimit:10;"/></g><!--reverse link DatabaseClient to RepositoriesConfiguration--><g class="link" data-entity-1="ent0019" data-entity-2="ent0018" id="lnk26" data-source-line="99" data-link-type="dependency"><path d="M1153.06,947.905 C1092.67,984.385 1036.43,1018.35 992.6,1044.82" style="stroke:#181818;stroke-width:1;" fill="none" id="DatabaseClient-backto-RepositoriesConfiguration" codeLine="99"/><polygon points="1157.34,945.32,1147.568,946.55,1153.06,947.905,1151.705,953.397,1157.34,945.32" fill="#181818" style="stroke:#181818;stroke-width:1;stroke-linejoin:miter;stroke-miterlimit:10;"/></g><!--reverse link IPAddressHandler to RepositoriesConfiguration--><g class="link" data-entity-1="ent0006" data-entity-2="ent0018" id="lnk27" data-source-line="101" data-link-type="dependency"><path d="M310.795,850.507 C348.895,881.367 401.85,919.92 458,944.91 C560.16,990.37 595.87,970.08 703,1002.14 C744.08,1014.44 788.56,1030.24 826.97,1044.71" style="stroke:#181818;stroke-width:1;" fill="none" id="IPAddressHandler-backto-RepositoriesConfiguration" codeLine="101"/><polygon points="306.91,847.36,311.386,856.133,310.795,850.507,316.421,849.916,306.91,847.36" fill="#181818" style="stroke:#181818;stroke-width:1;stroke-linejoin:miter;stroke-miterlimit:10;"/></g><!--reverse link PhysicalAddressHandler to RepositoriesConfiguration--><g class="link" data-entity-1="ent0007" data-entity-2="ent0018" id="lnk28" data-source-line="103" data-link-type="dependency"><path d="M716.173,851.17 C763.693,903.75 843.76,992.33 891.25,1044.88" style="stroke:#181818;stroke-width:1;" fill="none" id="PhysicalAddressHandler-backto-RepositoriesConfiguration" codeLine="103"/><polygon points="712.82,847.46,715.887,856.819,716.173,851.17,721.822,851.455,712.82,847.46" fill="#181818" style="stroke:#181818;stroke-width:1;stroke-linejoin:miter;stroke-miterlimit:10;"/></g><!--link TypeHandlers to GMN31--><g class="link" data-entity-1="ent0005" data-entity-2="ent0032" id="lnk33" data-source-line="120" data-link-type="association"><path d="M47.446,871.27 C47.493,871.722 47.542,872.176 47.591,872.631 C47.79,874.449 48.004,876.284 48.236,878.132 C49.162,885.524 50.365,893.125 51.918,900.735 C55.022,915.955 59.523,931.213 66,944.91 C89.8,995.25 138,1040.26 167.69,1064.82" style="stroke:#181818;stroke-width:1;stroke-dasharray:7,7;" fill="none" id="TypeHandlers-GMN31"/></g><?plantuml-src nLZBRjiu5DttAuYk73Js1mH1ZJG96WCjQeoTRWP5GL5NDXjQ54Wg4xMJ-VQv56c9aYa_sap72riIptq_vOAo1xe2ydgneShSoGrC5g0UGKt-W49gRgJYe5yJgaduWFnuHV1JUEghH1j5cU4ozoVsyuRd1bH66P3Pmb1xgXicLG2imTSAg06Fkz9LpaRpTQKve-8gJHLeVKvcStyvFIV87B-JoW3-t23fac_WKvPfC6VaWYofVhZqt6vpmqtrjYllFPW5prUYApAHKfmJ8VELPLxVX4BTavvUqxYywQx0ZwKml6X4QYSpJlxdbnxzVP7s7MJr93mTrjGxgRxshd8tNOSTQS57gXwGGF2yiM0qu7chMMZ1ywjuMlp53Ll3uRIeSQtHpfh6ClmEJAYn1s8Uy8k4l7DJ-otAVL-4lM4x8gACXcAzQtLhxs7Zfw7xWo1igtPP5N17yrI0qe7R_s62QjqcauVq0xC0yvcA4aQpcmIJWCwfeXl0o8PvQFLwb3pjaY9KmqWctu2vr6i9OWdZ5UfLtUbgnShs2ENwPFkTMhk-xP0rImLCgfHqQgklzon5KJR8_P9ZNkwk9Xtah6Xn4NVQprN1vr8P1DYsq3_wZ5bW-_U5I_ZEyGUgpHtWW4Ym617HBVfeaRkOTKo-VJAGMncwR_mFRN7icSpqfzosbv5Pynwr3KMTwmEaxwW6DEDUYG7YUyMZwTM49oYTdeBnu7W9ySCF4WDL7rbtTevkdmhCBKWjFNYhkj5WfgGYF9xkyt6Wz-ak3eZFOhgqX0xQ-ZUWF3_UszqYk1oFXtAafGZZKXD43TuduGI2m8C7I7k5VotpZAzAHVjRa8jIk3qDGRl-tg8mgmk1PM_1xqekKb2ZsPtKPlTvlAFjShoXHO5STk2TZkRRhcsY2TRMjU2Gcq3RyLScynpghMzX5CvLPAVhYzRuBlN87P-v5X8Sj4pTl7SEhoVVvVAj9yEjfShfXhEcf-jcxYtRMJTkflpfNAPTDjjflctgfx0AP_hlN6v_wsBxAqlj_xlG_ieo-s9BwN-uaBxCClgYYwZlAx5tmSk_9vDOIuXYiIqFTjEjYDttYc4H4UnX4RjJ9gAhX_O7M4IaG_PwxJ6MzhVq8sW65kaZA7E96uc0p12P3MClBlQChYQrxZMan4Z2jbYIGW5v2ZchiCo_kS5Y4V24Wc0xQCSfP5YpAMaubOOBjtERjPBbQes_m1LftpDh4bu7PzAGBUqMWuDGIShMf53mY3xNJfeTPiZ4AiSKDlQ05zzWHMqGwe9DYZ914qKr2NQSDHM294YElwXffkI6p9LSuPIOCAy2cbhxyoSzwqPu8x9vRWUsFGcz8gqkD15WBtN964OzAuMeq5YsfZbkBrZbb61MhkihcuD4k_-1VjOiUzEQbaXZ48t6XM-T3MlayiXJr9MLsk9GDgU2VtSR4g8nXDrd3MacbJUvfy3plm00?></g></svg>